HIERARCHY
ROOT joint_Root
{
	OFFSET 0.0 0.0 0.0
	CHANNELS 6 Xposition Yposition Zposition Zrotation Xrotation Yrotation 
	JOINT Hips
	{
		OFFSET 4.5925 91.4895 -427.239
		CHANNELS 6 Xposition Yposition Zposition Zrotation Xrotation Yrotation 
		JOINT Spine
		{
			OFFSET 15.7357 0.0 0.0
			CHANNELS 6 Xposition Yposition Zposition Zrotation Xrotation Yrotation 
			JOINT Chest
			{
				OFFSET 8.98455 -0.406207 0.0
				CHANNELS 6 Xposition Yposition Zposition Zrotation Xrotation Yrotation 
				JOINT Neck
				{
					OFFSET 16.3773 0.0 0.0
					CHANNELS 6 Xposition Yposition Zposition Zrotation Xrotation Yrotation 
					JOINT Head
					{
						OFFSET 6.45672 0.0 0.0
						CHANNELS 6 Xposition Yposition Zposition Zrotation Xrotation Yrotation 
						End Site
						{
							OFFSET 0.0 0.0 0.0
						}
					}
				}
				JOINT Shoulder_L
				{
					OFFSET 12.9942 -0.242716 4.98039
					CHANNELS 6 Xposition Yposition Zposition Zrotation Xrotation Yrotation 
					JOINT UpperArm_L
					{
						OFFSET 5.34809 0.0 0.0
						CHANNELS 6 Xposition Yposition Zposition Zrotation Xrotation Yrotation 
						JOINT LowerArm_L
						{
							OFFSET 24.3286 1.87007e-05 0.0
							CHANNELS 6 Xposition Yposition Zposition Zrotation Xrotation Yrotation 
							JOINT Hand_L
							{
								OFFSET 22.2916 0.0 0.0
								CHANNELS 6 Xposition Yposition Zposition Zrotation Xrotation Yrotation 
								End Site
								{
									OFFSET 0.0 0.0 0.0
								}
							}
						}
					}
				}
				JOINT Shoulder_R
				{
					OFFSET 12.9945 -0.242716 -4.98039
					CHANNELS 6 Xposition Yposition Zposition Zrotation Xrotation Yrotation 
					JOINT UpperArm_R
					{
						OFFSET -5.34813 0.0 0.0
						CHANNELS 6 Xposition Yposition Zposition Zrotation Xrotation Yrotation 
						JOINT LowerArm_R
						{
							OFFSET -24.3289 0.000322201 0.0
							CHANNELS 6 Xposition Yposition Zposition Zrotation Xrotation Yrotation 
							JOINT Hand_R
							{
								OFFSET -22.2915 -0.000108084 0.0
								CHANNELS 6 Xposition Yposition Zposition Zrotation Xrotation Yrotation 
								End Site
								{
									OFFSET 0.0 0.0 0.0
								}
							}
						}
					}
				}
			}
		}
		JOINT UpperLeg_L
		{
			OFFSET -2.19248 -6.46944 0.0
			CHANNELS 6 Xposition Yposition Zposition Zrotation Xrotation Yrotation 
			JOINT LowerLeg_L
			{
				OFFSET 39.0811 0.0 -1.23785e-05
				CHANNELS 6 Xposition Yposition Zposition Zrotation Xrotation Yrotation 
				JOINT Foot_L
				{
					OFFSET 40.9854 0.0 -1.26872e-05
					CHANNELS 6 Xposition Yposition Zposition Zrotation Xrotation Yrotation 
					JOINT Toes_L
					{
						OFFSET 11.7543 0.0 0.0
						CHANNELS 6 Xposition Yposition Zposition Zrotation Xrotation Yrotation 
						End Site
						{
							OFFSET 0.0 0.0 0.0
						}
					}
				}
			}
		}
		JOINT UpperLeg_R
		{
			OFFSET -2.19251 6.46944 0.0
			CHANNELS 6 Xposition Yposition Zposition Zrotation Xrotation Yrotation 
			JOINT LowerLeg_R
			{
				OFFSET -39.0811 -0.00228153 -0.0401928
				CHANNELS 6 Xposition Yposition Zposition Zrotation Xrotation Yrotation 
				JOINT Foot_R
				{
					OFFSET -40.9854 0.0 0.0
					CHANNELS 6 Xposition Yposition Zposition Zrotation Xrotation Yrotation 
					JOINT Toes_R
					{
						OFFSET -11.7543 0.0 0.0
						CHANNELS 6 Xposition Yposition Zposition Zrotation Xrotation Yrotation 
						End Site
						{
							OFFSET 0.0 0.0 0.0
						}
					}
				}
			}
		}
	}
}
MOTION
Frames:	9
Frame Time:	0.0333333
0.000000 0.000000 0.000000 0.000000 0.000000 -0.000000 -7.121410 90.561100 0.630822 88.273700 0.771782 7.016420 15.735700 0.000005 -0.000001 82.245900 82.547600 -80.054200 8.984550 -0.406207 -0.000000 7.048290 -2.017700 4.503360 16.377300 -0.000001 -0.000001 0.927251 -3.657910 3.093100 6.456720 -0.000001 -0.000000 -12.159700 -3.260890 6.593870 12.994200 -0.242716 4.980390 -91.466300 5.614800 -75.338800 5.348090 -0.000007 -0.000001 -62.049600 36.935400 -16.896300 24.328600 0.000019 0.000005 6.320760 22.198000 -16.340600 22.291600 -0.000001 0.000005 9.296320 5.237340 1.764700 12.994500 -0.242716 -4.980390 88.163600 11.816500 -81.101200 -5.348130 -0.000001 -0.000004 -57.233500 18.644000 -9.536770 -24.328900 0.000322 -0.000009 0.830150 2.894250 -16.040100 -22.291500 -0.000108 -0.000004 14.315400 5.342240 -1.145760 -2.192480 -6.469440 -0.000000 -170.047000 -8.737430 -3.297890 39.081100 -0.000007 -0.000012 -0.263408 0.445175 30.613100 40.985400 -0.000006 -0.000013 -4.310680 5.828350 -69.617800 11.754300 -0.000000 0.000003 -0.000129 -0.001280 -16.626400 -2.192510 6.469440 -0.000001 -179.562000 25.879200 179.796000 -39.081100 -0.002282 -0.040193 -0.160534 0.299545 28.677000 -40.985400 0.000008 0.000006 7.853270 11.881500 -72.686000 -11.754300 -0.000006 -0.000006 -0.001540 -0.022805 -17.500400
0.000000 0.000000 0.000000 0.000000 0.000000 -0.000000 -7.395270 90.509300 0.539178 88.031500 0.651002 7.099810 15.735700 0.000005 -0.000001 82.697500 82.511900 -80.440200 8.984550 -0.406207 -0.000000 7.133390 -1.909270 4.629040 16.377300 -0.000001 -0.000001 1.001830 -3.748030 3.149420 6.456720 -0.000001 -0.000000 -12.147700 -3.467830 6.858570 12.994200 -0.242716 4.980390 -91.442100 5.561130 -75.437700 5.348090 -0.000007 -0.000001 -61.701400 37.962700 -18.555000 24.328600 0.000019 0.000005 6.693920 21.070400 -18.079500 22.291600 -0.000001 0.000005 9.426430 5.246980 1.512490 12.994500 -0.242716 -4.980390 88.169200 11.796400 -81.113400 -5.348130 -0.000001 -0.000004 -57.500300 18.456400 -10.580200 -24.328900 0.000322 -0.000009 0.506446 1.503390 -18.667600 -22.291500 -0.000108 -0.000004 14.587000 5.358480 -1.633120 -2.192480 -6.469440 -0.000000 -169.563000 -8.837570 -3.411880 39.081100 -0.000007 -0.000012 -0.269112 0.449544 30.906600 40.985400 -0.000006 -0.000013 -4.483280 5.942030 -69.661200 11.754300 -0.000000 0.000003 -0.000127 -0.001263 -16.625700 -2.192510 6.469440 -0.000001 -179.134000 25.965400 179.796000 -39.081100 -0.002282 -0.040193 -0.156265 0.291157 28.725300 -40.985400 0.000008 0.000006 8.110180 11.929400 -72.743600 -11.754300 -0.000006 -0.000006 -0.001579 -0.023322 -17.521400
0.000000 0.000000 0.000000 0.000000 0.000000 -0.000000 -7.662380 90.453600 0.440093 87.796700 0.749148 7.154360 15.735700 0.000005 -0.000001 82.589900 82.493700 -80.265300 8.984550 -0.406207 -0.000000 7.168020 -1.941340 4.766390 16.377300 -0.000001 -0.000001 1.152710 -3.792730 3.135600 6.456720 -0.000001 -0.000000 -12.194200 -3.584090 7.016480 12.994200 -0.242716 4.980390 -91.426600 5.525270 -75.498300 5.348090 -0.000007 -0.000001 -61.369800 39.047900 -20.276600 24.328600 0.000019 0.000005 7.080720 20.064400 -19.903500 22.291600 -0.000001 0.000005 9.662230 5.250510 1.419490 12.994500 -0.242716 -4.980390 88.171300 11.825800 -81.145100 -5.348130 -0.000001 -0.000004 -57.845600 17.947800 -11.516800 -24.328900 0.000322 -0.000009 0.333367 0.860456 -21.244600 -22.291500 -0.000108 -0.000004 14.855800 5.373860 -2.105370 -2.192480 -6.469440 -0.000000 -169.135000 -8.744350 -3.638350 39.081100 -0.000007 -0.000012 -0.273717 0.451360 31.234200 40.985400 -0.000006 -0.000013 -4.645000 6.051920 -69.694100 11.754300 -0.000000 0.000003 -0.000122 -0.001222 -16.624200 -2.192510 6.469440 -0.000001 -178.721000 26.159300 179.745000 -39.081100 -0.002282 -0.040193 -0.154874 0.287717 28.800900 -40.985400 0.000008 0.000006 8.327180 11.894400 -72.804600 -11.754300 -0.000006 -0.000006 -0.001549 -0.022917 -17.505000
0.000000 0.000000 0.000000 0.000000 0.000000 -0.000000 -7.898880 90.406000 0.383550 87.637000 0.838485 7.293770 15.735700 0.000005 -0.000001 82.622800 82.450200 -80.256300 8.984550 -0.406207 -0.000000 7.256440 -1.942230 4.851510 16.377300 -0.000001 -0.000001 1.265440 -3.830390 3.069520 6.456720 -0.000001 -0.000000 -12.216300 -3.660590 6.965710 12.994200 -0.242716 4.980390 -91.408100 5.498400 -75.611500 5.348090 -0.000007 -0.000001 -61.003400 40.154700 -22.027400 24.328600 0.000019 0.000005 7.477430 19.204000 -21.753400 22.291600 -0.000001 0.000005 9.967810 5.258280 1.212900 12.994500 -0.242716 -4.980390 88.159200 11.906500 -81.145600 -5.348130 -0.000001 -0.000004 -58.263400 17.114600 -12.445400 -24.328900 0.000322 -0.000009 0.311194 0.721238 -23.408900 -22.291500 -0.000108 -0.000004 15.474300 5.390670 -2.635850 -2.192480 -6.469440 -0.000000 -168.762000 -8.734620 -3.687310 39.081100 -0.000007 -0.000012 -0.277174 0.453074 31.457200 40.985400 -0.000006 -0.000013 -4.763000 6.267970 -69.706800 11.754300 -0.000000 0.000003 -0.000119 -0.001198 -16.623300 -2.192510 6.469440 -0.000001 -178.451000 26.322300 179.826000 -39.081100 -0.002282 -0.040193 -0.152462 0.282622 28.861400 -40.985400 0.000008 0.000006 8.521290 11.865900 -72.876300 -11.754300 -0.000006 -0.000006 -0.001534 -0.022723 -17.497100
0.000000 0.000000 0.000000 0.000000 0.000000 -0.000000 -8.106010 90.350200 0.315461 87.535900 0.997834 7.448910 15.735700 0.000005 -0.000001 82.508700 82.404200 -80.123700 8.984550 -0.406207 -0.000000 7.345080 -1.981960 4.892690 16.377300 -0.000001 -0.000001 1.380290 -3.841720 3.046970 6.456720 -0.000001 -0.000000 -12.241500 -3.635880 6.777200 12.994200 -0.242716 4.980390 -91.377500 5.430570 -75.744200 5.348090 -0.000007 -0.000001 -60.579300 41.342500 -23.788600 24.328600 0.000019 0.000005 7.900570 18.552500 -23.564500 22.291600 -0.000001 0.000005 10.264300 5.265620 1.016520 12.994500 -0.242716 -4.980390 88.167300 11.901600 -81.180600 -5.348130 -0.000001 -0.000004 -58.726400 16.374600 -13.382000 -24.328900 0.000322 -0.000009 0.172425 0.372285 -24.999400 -22.291500 -0.000108 -0.000004 16.124700 5.395360 -2.787090 -2.192480 -6.469440 -0.000000 -168.493000 -8.610660 -3.757220 39.081100 -0.000007 -0.000012 -0.280423 0.453928 31.707100 40.985400 -0.000006 -0.000013 -4.877480 6.408850 -69.731400 11.754300 -0.000000 0.000003 -0.000113 -0.001144 -16.621300 -2.192510 6.469440 -0.000001 -178.214000 26.327000 179.857000 -39.081100 -0.002282 -0.040193 -0.153182 0.282168 29.012200 -40.985400 0.000008 0.000006 8.639700 11.609100 -72.957100 -11.754300 -0.000006 -0.000006 -0.001663 -0.024419 -17.566000
0.000000 0.000000 0.000000 0.000000 0.000000 -0.000000 -8.314420 90.292500 0.299979 87.408000 1.200480 7.694990 15.735700 0.000005 -0.000001 82.325400 82.335000 -79.919000 8.984550 -0.406207 -0.000000 7.477950 -2.045460 4.941870 16.377300 -0.000001 -0.000001 1.520260 -3.881130 3.036160 6.456720 -0.000001 -0.000000 -12.286700 -3.613610 6.592060 12.994200 -0.242716 4.980390 -91.340800 5.334890 -75.870400 5.348090 -0.000007 -0.000001 -60.125400 42.523100 -25.479400 24.328600 0.000019 0.000005 8.353690 18.130400 -25.261900 22.291600 -0.000001 0.000005 10.497700 5.275120 0.759557 12.994500 -0.242716 -4.980390 88.194400 11.791100 -81.230300 -5.348130 -0.000001 -0.000004 -59.156800 15.734600 -14.335100 -24.328900 0.000322 -0.000009 0.115288 0.240280 -25.834500 -22.291500 -0.000108 -0.000004 16.538800 5.402380 -3.014930 -2.192480 -6.469440 -0.000000 -168.190000 -8.407710 -3.705610 39.081100 -0.000007 -0.000012 -0.285740 0.458139 31.952200 40.985400 -0.000006 -0.000013 -4.994450 6.537770 -69.795800 11.754300 -0.000000 0.000003 -0.000105 -0.001076 -16.618800 -2.192510 6.469440 -0.000001 -178.061000 26.480500 -179.935000 -39.081100 -0.002282 -0.040193 -0.152870 0.280319 29.123600 -40.985400 0.000008 0.000006 8.775940 11.489000 -73.072500 -11.754300 -0.000006 -0.000006 -0.001472 -0.021901 -17.463700
0.000000 0.000000 0.000000 0.000000 0.000000 -0.000000 -8.502080 90.243100 0.267794 87.299300 1.425850 7.842820 15.735700 0.000005 -0.000001 82.222000 82.302400 -79.810400 8.984550 -0.406207 -0.000000 7.539820 -2.080130 4.955860 16.377300 -0.000001 -0.000001 1.671760 -3.924090 3.070160 6.456720 -0.000001 -0.000000 -12.322800 -3.626900 6.510200 12.994200 -0.242716 4.980390 -91.298800 5.214760 -75.994000 5.348090 -0.000007 -0.000001 -59.590100 43.698300 -27.133200 24.328600 0.000019 0.000005 8.814320 17.879500 -26.796600 22.291600 -0.000001 0.000005 10.658600 5.282390 0.560872 12.994500 -0.242716 -4.980390 88.223300 11.648000 -81.265700 -5.348130 -0.000001 -0.000004 -59.332400 15.320800 -15.269800 -24.328900 0.000322 -0.000009 0.163366 0.337293 -25.990900 -22.291500 -0.000108 -0.000004 16.698100 5.407130 -3.170880 -2.192480 -6.469440 -0.000000 -167.951000 -8.177790 -3.765330 39.081100 -0.000007 -0.000012 -0.288763 0.459136 32.167400 40.985400 -0.000006 -0.000013 -5.106990 6.627370 -69.828100 11.754300 -0.000000 0.000003 -0.000103 -0.001055 -16.618000 -2.192510 6.469440 -0.000001 -177.905000 26.762500 -179.830000 -39.081100 -0.002282 -0.040193 -0.151935 0.277628 29.212400 -40.985400 0.000008 0.000006 8.915410 11.411000 -73.171000 -11.754300 -0.000006 -0.000006 -0.001522 -0.022562 -17.490500
0.000000 0.000000 0.000000 0.000000 0.000000 -0.000000 -8.676920 90.196100 0.252602 87.160500 1.571230 8.035820 15.735700 0.000005 -0.000001 82.324900 82.255700 -79.905400 8.984550 -0.406207 -0.000000 7.635840 -2.063080 4.972220 16.377300 -0.000001 -0.000001 1.809230 -3.927200 3.168340 6.456720 -0.000001 -0.000000 -12.342800 -3.628500 6.463720 12.994200 -0.242716 4.980390 -91.257100 5.072530 -76.061900 5.348090 -0.000007 -0.000001 -59.390700 44.354100 -28.354400 24.328600 0.000019 0.000005 9.597900 18.351500 -28.239200 22.291600 -0.000001 0.000005 10.617300 5.292870 0.271285 12.994500 -0.242716 -4.980390 88.265800 11.472400 -81.344600 -5.348130 -0.000001 -0.000004 -59.214300 15.012600 -16.095800 -24.328900 0.000322 -0.000009 0.316090 0.658777 -25.710100 -22.291500 -0.000108 -0.000004 16.658100 5.405440 -3.115100 -2.192480 -6.469440 -0.000000 -167.653000 -8.091200 -3.740210 39.081100 -0.000007 -0.000012 -0.291288 0.459378 32.379000 40.985400 -0.000006 -0.000013 -5.181810 6.813730 -69.876100 11.754300 -0.000000 0.000003 -0.000099 -0.001017 -16.616600 -2.192510 6.469440 -0.000001 -177.730000 26.875600 -179.666000 -39.081100 -0.002282 -0.040193 -0.147861 0.269644 29.275500 -40.985400 0.000008 0.000006 9.035760 11.328900 -73.248100 -11.754300 -0.000006 -0.000006 -0.001323 -0.019895 -17.382200
0.000000 0.000000 0.000000 0.000000 0.000000 -0.000000 -8.828860 90.145800 0.238048 87.023600 1.760400 8.181550 15.735700 0.000005 -0.000001 82.351000 82.221700 -79.930800 8.984550 -0.406207 -0.000000 7.704270 -2.063570 4.974960 16.377300 -0.000001 -0.000001 1.949790 -3.926590 3.267240 6.456720 -0.000001 -0.000000 -12.341900 -3.664160 6.541090 12.994200 -0.242716 4.980390 -91.217500 4.895800 -76.016800 5.348090 -0.000007 -0.000001 -59.449100 44.567100 -29.157500 24.328600 0.000019 0.000005 10.413100 18.904500 -29.561800 22.291600 -0.000001 0.000005 10.573800 5.299940 0.073619 12.994500 -0.242716 -4.980390 88.292900 11.333900 -81.376500 -5.348130 -0.000001 -0.000004 -58.759100 14.567800 -16.736700 -24.328900 0.000322 -0.000009 0.529166 1.124250 -25.252700 -22.291500 -0.000108 -0.000004 16.309000 5.403020 -3.035920 -2.192480 -6.469440 -0.000000 -167.403000 -7.871210 -3.789490 39.081100 -0.000007 -0.000012 -0.294946 0.460988 32.612200 40.985400 -0.000006 -0.000013 -5.287620 6.862700 -69.940900 11.754300 -0.000000 0.000003 -0.000093 -0.000964 -16.614600 -2.192510 6.469440 -0.000001 -177.585000 27.116900 -179.555000 -39.081100 -0.002282 -0.040193 -0.150989 0.274178 29.368500 -40.985400 0.000008 0.000006 9.160570 11.311300 -73.348300 -11.754300 -0.000006 -0.000006 -0.001497 -0.022237 -17.477300
